<mxfile host="app.diagrams.net" agent="Mozilla/5.0 (Windows NT 10.0; Win64; x64) AppleWebKit/537.36 (KHTML, like Gecko) Chrome/134.0.0.0 Safari/537.36 Edg/134.0.0.0" version="26.1.0">
  <diagram name="第 1 页" id="Sr9dMaiNSAW5wkPr166d">
    <mxGraphModel dx="1166" dy="770" grid="1" gridSize="10" guides="1" tooltips="1" connect="1" arrows="1" fold="1" page="1" pageScale="1" pageWidth="827" pageHeight="1169" math="0" shadow="0">
      <root>
        <mxCell id="0" />
        <mxCell id="1" parent="0" />
        <mxCell id="BLQTrfnzE4m1vtn8VhRi-11" style="edgeStyle=orthogonalEdgeStyle;rounded=0;orthogonalLoop=1;jettySize=auto;html=1;exitX=0.5;exitY=1;exitDx=0;exitDy=0;entryX=0.5;entryY=0;entryDx=0;entryDy=0;" edge="1" parent="1" source="BLQTrfnzE4m1vtn8VhRi-1" target="BLQTrfnzE4m1vtn8VhRi-6">
          <mxGeometry relative="1" as="geometry" />
        </mxCell>
        <mxCell id="BLQTrfnzE4m1vtn8VhRi-1" value="保存不同的三方配置" style="rounded=0;whiteSpace=wrap;html=1;" vertex="1" parent="1">
          <mxGeometry x="260" y="178" width="120" height="60" as="geometry" />
        </mxCell>
        <mxCell id="BLQTrfnzE4m1vtn8VhRi-10" style="edgeStyle=orthogonalEdgeStyle;rounded=0;orthogonalLoop=1;jettySize=auto;html=1;exitX=0.5;exitY=1;exitDx=0;exitDy=0;entryX=0.5;entryY=0;entryDx=0;entryDy=0;" edge="1" parent="1" source="BLQTrfnzE4m1vtn8VhRi-2" target="BLQTrfnzE4m1vtn8VhRi-1">
          <mxGeometry relative="1" as="geometry" />
        </mxCell>
        <mxCell id="BLQTrfnzE4m1vtn8VhRi-2" value="开始" style="rounded=1;whiteSpace=wrap;html=1;arcSize=50;" vertex="1" parent="1">
          <mxGeometry x="260" y="100" width="120" height="40" as="geometry" />
        </mxCell>
        <mxCell id="BLQTrfnzE4m1vtn8VhRi-3" value="结束" style="rounded=1;whiteSpace=wrap;html=1;arcSize=50;" vertex="1" parent="1">
          <mxGeometry x="260" y="630" width="120" height="40" as="geometry" />
        </mxCell>
        <mxCell id="BLQTrfnzE4m1vtn8VhRi-12" style="edgeStyle=orthogonalEdgeStyle;rounded=0;orthogonalLoop=1;jettySize=auto;html=1;exitX=0.5;exitY=1;exitDx=0;exitDy=0;entryX=0.5;entryY=0;entryDx=0;entryDy=0;" edge="1" parent="1" source="BLQTrfnzE4m1vtn8VhRi-6" target="BLQTrfnzE4m1vtn8VhRi-7">
          <mxGeometry relative="1" as="geometry" />
        </mxCell>
        <mxCell id="BLQTrfnzE4m1vtn8VhRi-6" value="用户登录" style="rounded=0;whiteSpace=wrap;html=1;" vertex="1" parent="1">
          <mxGeometry x="260" y="267" width="120" height="60" as="geometry" />
        </mxCell>
        <mxCell id="BLQTrfnzE4m1vtn8VhRi-13" style="edgeStyle=orthogonalEdgeStyle;rounded=0;orthogonalLoop=1;jettySize=auto;html=1;exitX=0.5;exitY=1;exitDx=0;exitDy=0;entryX=0.5;entryY=0;entryDx=0;entryDy=0;" edge="1" parent="1" source="BLQTrfnzE4m1vtn8VhRi-7" target="BLQTrfnzE4m1vtn8VhRi-8">
          <mxGeometry relative="1" as="geometry" />
        </mxCell>
        <mxCell id="BLQTrfnzE4m1vtn8VhRi-7" value="根据登录平台读取不同的请求&lt;span style=&quot;background-color: transparent; color: light-dark(rgb(0, 0, 0), rgb(255, 255, 255));&quot;&gt;客户端&lt;/span&gt;" style="rounded=0;whiteSpace=wrap;html=1;" vertex="1" parent="1">
          <mxGeometry x="260" y="355" width="120" height="60" as="geometry" />
        </mxCell>
        <mxCell id="BLQTrfnzE4m1vtn8VhRi-14" style="edgeStyle=orthogonalEdgeStyle;rounded=0;orthogonalLoop=1;jettySize=auto;html=1;exitX=0.5;exitY=1;exitDx=0;exitDy=0;entryX=0.5;entryY=0;entryDx=0;entryDy=0;" edge="1" parent="1" source="BLQTrfnzE4m1vtn8VhRi-8" target="BLQTrfnzE4m1vtn8VhRi-9">
          <mxGeometry relative="1" as="geometry" />
        </mxCell>
        <mxCell id="BLQTrfnzE4m1vtn8VhRi-8" value="获取三方用户信息" style="rounded=0;whiteSpace=wrap;html=1;" vertex="1" parent="1">
          <mxGeometry x="260" y="443" width="120" height="60" as="geometry" />
        </mxCell>
        <mxCell id="BLQTrfnzE4m1vtn8VhRi-15" style="edgeStyle=orthogonalEdgeStyle;rounded=0;orthogonalLoop=1;jettySize=auto;html=1;exitX=0.5;exitY=1;exitDx=0;exitDy=0;entryX=0.5;entryY=0;entryDx=0;entryDy=0;" edge="1" parent="1" source="BLQTrfnzE4m1vtn8VhRi-9" target="BLQTrfnzE4m1vtn8VhRi-3">
          <mxGeometry relative="1" as="geometry" />
        </mxCell>
        <mxCell id="BLQTrfnzE4m1vtn8VhRi-9" value="系统校验后返回令牌" style="rounded=0;whiteSpace=wrap;html=1;" vertex="1" parent="1">
          <mxGeometry x="260" y="532" width="120" height="60" as="geometry" />
        </mxCell>
      </root>
    </mxGraphModel>
  </diagram>
</mxfile>
